<?xml version="1.0" encoding="UTF-8"?>
<svg data-bbox="0.001 -0.016 79.473 77.681" viewBox="0 0 79.486 77.662" height="77.662" width="79.486" xmlns="http://www.w3.org/2000/svg" data-type="color">
    <g>
        <g>
            <path fill="#1487af" d="M77.362 1.026a7.093 7.093 0 0 0-4.595-.985 18.3 18.3 0 0 0-8.205 3.447q-3.2 2.462-7.385 5.908l-3.938 3.446c-.821.821-1.641 1.477-2.462 2.3a2.856 2.856 0 0 1-2.462.821c-.492-.164-1.149-.328-1.805-.492L15.823 3.979c-.985-.328-1.969-.656-3.118-.985a5.169 5.169 0 0 0-4.923.821 14.663 14.663 0 0 0-4.267 4.759 3.88 3.88 0 0 0 .821 5.251 11.97 11.97 0 0 0 1.805 1.477c5.579 3.938 11.323 7.713 16.9 11.651a26.068 26.068 0 0 1 5.579 4.595c.328.492.656.821.985 1.313L18.941 43.036c-1.149 1.149-2.3 2.133-3.446 3.282-.164 0-.328-.164-.492-.164l-1.805-.821c-1.477-.656-2.79-1.477-4.267-2.133a4.731 4.731 0 0 0-5.251.656 31.506 31.506 0 0 0-2.462 2.3 3.428 3.428 0 0 0-.328 4.923 7.137 7.137 0 0 0 .985 1.149l3.118 3.938a468.435 468.435 0 0 0 11.159 14.113 5.4 5.4 0 0 0 5.251 2.133 6.156 6.156 0 0 0 4.1-3.938 7.637 7.637 0 0 0 .164-5.415l-.328-1.477-.985-3.938c4.431-3.446 8.862-6.728 13.128-10.174l2.133-1.641.492.821a25.343 25.343 0 0 1 2.79 5.579l7.549 19.364c.492 1.149.821 2.3 1.313 3.282a4.136 4.136 0 0 0 3.774 2.79 4.369 4.369 0 0 0 1.969-.492 3.3 3.3 0 0 0 1.313-.656 8.656 8.656 0 0 0 4.923-5.579 13.587 13.587 0 0 0 .164-5.087l-3.935-28.723c-.328-2.3-.656-4.759-.985-7.056a2.34 2.34 0 0 1 .985-2.462l3.446-2.954c2.79-2.3 5.415-4.595 8.205-6.892a26.653 26.653 0 0 0 5.087-5.744 17.231 17.231 0 0 0 2.462-5.251 4.908 4.908 0 0 0-1.805-5.743zm-1.313 5.087a18.472 18.472 0 0 1-2.133 4.431 20.008 20.008 0 0 1-4.431 4.923c-2.626 2.3-5.415 4.595-8.205 6.892l-3.282 2.79a5.609 5.609 0 0 0-2.3 5.579c.328 2.3.656 4.595.985 7.056l3.938 28.718a9.1 9.1 0 0 1-.164 3.774 5.8 5.8 0 0 1-3.118 3.446 8 8 0 0 1-1.149.492c-.985.328-1.313.164-1.641-.656-.492-.985-.821-2.133-1.313-3.282l-7.221-19.364a42.393 42.393 0 0 0-3.118-6.072l-.985-1.641-1.477-2.133-5.087 3.774c-4.595 3.446-9.19 7.056-13.621 10.5a2.064 2.064 0 0 0-.821 2.462c.328 1.477.821 2.954 1.149 4.431l.328 1.477a4.89 4.89 0 0 1-.164 3.446 3.47 3.47 0 0 1-2.3 1.969 1.657 1.657 0 0 1-.821-.328 1.978 1.978 0 0 1-.821-.821c-3.774-4.759-7.385-9.354-10.995-14.113l-3.11-3.935a6.948 6.948 0 0 1-.821-1.149.508.508 0 0 1-.164-.328l.328-.328a23.3 23.3 0 0 1 2.133-1.969 1.471 1.471 0 0 1 1.805-.164 51.732 51.732 0 0 1 4.267 2.133l1.805.821.985.492a2.259 2.259 0 0 0 2.626-.328c1.313-1.313 2.626-2.462 3.938-3.774l11.323-10.667 1.313-1.313-.82-1.149c-.164-.328-.328-.492-.492-.821a17.192 17.192 0 0 0-1.313-1.805 27.2 27.2 0 0 0-6.236-5.251 1031.553 1031.553 0 0 1-16.9-11.651 9.018 9.018 0 0 1-1.477-1.149c-.492-.492-.492-.656-.164-.985a13.606 13.606 0 0 1 3.61-3.938c.328-.328.821-.492 1.969-.164a30.983 30.983 0 0 1 2.954.985l30.687 11.487a16.838 16.838 0 0 0 2.3.656 5.92 5.92 0 0 0 5.087-1.477c.821-.821 1.641-1.477 2.462-2.3l3.938-3.446c2.79-2.3 5.087-4.267 7.22-5.908a14.385 14.385 0 0 1 6.728-2.79 3.129 3.129 0 0 1 2.133.328c.653.168.981 1.152.653 2.137z" data-color="1"/>
            <path fill="#ffffff" d="M19.156 19.287l-4.108 5.2 1.506 1.3s4.04-5.957 4.245-5.957a15.308 15.308 0 0 0-1.643-.543z" data-color="2"/>
        </g>
    </g>
</svg>
