<?xml version="1.0" encoding="UTF-8"?>
<svg data-bbox="0 -0.001 50.557 53.934" viewBox="0 0 50.556 53.934" height="53.934" width="50.556" xmlns="http://www.w3.org/2000/svg" data-type="color">
    <g>
        <g>
            <g>
                <path fill="#1487af" d="M50.11 11.9L25.622.078a.79.79 0 0 0-.687 0L.447 11.9a.79.79 0 0 0-.447.711v28.71a.79.79 0 0 0 .447.711l24.488 11.823a.79.79 0 0 0 .687 0L50.11 42.033a.79.79 0 0 0 .447-.711V12.611a.79.79 0 0 0-.447-.711zM25.278 1.667l22.671 10.944-6.572 3.173a.783.783 0 0 0-.134-.084L18.727 4.83zm-8.336 4.056L39.58 16.652l-4.636 2.238L12.315 7.966zM40.11 18.15v8.274l-4.331 2.091v-8.274zm8.866 22.675L26.068 51.884V24.929l5.464-2.638a.79.79 0 1 0-.687-1.423l-5.567 2.688-2.191-1.056a.79.79 0 0 0-.687 1.423l2.088 1.008v26.953L1.58 40.826V13.87l17.444 8.421a.79.79 0 0 0 .687-1.423l-17.1-8.257 7.848-3.789L34.188 20.28l.011.014v9.48a.79.79 0 0 0 1.134.711l5.911-2.854a.79.79 0 0 0 .447-.711v-9.532l7.286-3.517v26.955z" data-color="1"/>
            </g>
        </g>
        <g>
            <g>
                <path fill="#1487af" d="M8.101 37.762l-3.594-1.735a.79.79 0 0 0-.687 1.423l3.594 1.735a.79.79 0 0 0 .687-1.423z" data-color="1"/>
            </g>
        </g>
        <g>
            <g>
                <path fill="#1487af" d="M11.408 35.611l-6.9-3.329a.79.79 0 1 0-.687 1.423l6.9 3.329a.79.79 0 0 0 .687-1.423z" data-color="1"/>
            </g>
        </g>
    </g>
</svg>
