<?xml version="1.0" encoding="UTF-8"?>
<svg data-bbox="0 0.001 49.999 49.998" viewBox="0 0 50 50" height="50" width="50" xmlns="http://www.w3.org/2000/svg" data-type="color">
    <g>
        <path fill="#1487af" d="M13.471 19.254v1.848h-1.848v-1.848h1.848z" data-color="1"/>
        <path fill="#1487af" d="M21.773 19.254v1.848h-1.848v-1.848h1.848z" data-color="1"/>
        <path fill="#1487af" d="M49.285 28.457l-3.256-.463a11.57 11.57 0 0 0-.548-1.326l1.97-2.613a.826.826 0 0 0-.077-1.083l-3.536-3.517a.826.826 0 0 0-.505-.235v-7.979A6.607 6.607 0 0 0 42.022.08a.837.837 0 0 0-.8.049.828.828 0 0 0-.387.7v4.642l-1.668.549-1.667-.549V.829a.828.828 0 0 0-.389-.7.837.837 0 0 0-.8-.048A6.6 6.6 0 0 0 35 11.241v5.6h-2.5a.832.832 0 0 0-.825.711l-.539 3.754 1.65.235.437-3.042h3.555l.437 3.042a.83.83 0 0 0 .592.678 9.979 9.979 0 0 1 2 .818.837.837 0 0 0 .9-.064l2.467-1.84 2.513 2.5-1.854 2.457a.825.825 0 0 0-.064.9 9.866 9.866 0 0 1 .822 1.989.832.832 0 0 0 .682.589l3.058.434v3.536l-3.058.434a.832.832 0 0 0-.682.589 9.867 9.867 0 0 1-.823 1.989.825.825 0 0 0 .064.9l1.85 2.454-2.513 2.5-2.469-1.853a.837.837 0 0 0-.9-.064 9.979 9.979 0 0 1-2 .818.83.83 0 0 0-.592.678l-.434 3.044h-3.441V41.52a9.155 9.155 0 0 0-.375-2.587 7.611 7.611 0 0 0 8.565-3.237 7.52 7.52 0 0 0-.8-9.079 7.62 7.62 0 0 0-9-1.7 7.54 7.54 0 0 0-4.093 8.163l-.059-.026-6.737-2.681V29.1a9.232 9.232 0 0 0 2.9-2.309h2.1a2.493 2.493 0 0 0 2.5-2.487v-1.81A2.488 2.488 0 0 0 30 20.159v-2.486a2.488 2.488 0 0 0-1.667-2.334v-.981A11.667 11.667 0 0 0 5 14.357v.981a2.488 2.488 0 0 0-1.667 2.334v2.487a2.493 2.493 0 0 0 2.5 2.487H7.5c.053 0 .105-.008.158-.012A9.142 9.142 0 0 0 12.5 29.1v1.274l-6.738 2.681A9.076 9.076 0 0 0 0 41.52v7.65a.831.831 0 0 0 .833.829H32.5a.831.831 0 0 0 .833-.829v-2.485H37.5a.832.832 0 0 0 .825-.711l.465-3.238a11.7 11.7 0 0 0 1.333-.545l2.627 1.96a.837.837 0 0 0 1.089-.077l3.536-3.517a.826.826 0 0 0 .077-1.083l-1.97-2.613a11.572 11.572 0 0 0 .547-1.326l3.256-.463a.83.83 0 0 0 .714-.82v-4.975a.83.83 0 0 0-.715-.821zm-9.167-7.119c-.039-.019-.083-.031-.123-.05V11.041h-1.662v6.573l-.008-.06a.832.832 0 0 0-.825-.711h-.833v-6.017a.828.828 0 0 0-.358-.681 4.957 4.957 0 0 1-.476-7.789v3.712a.829.829 0 0 0 .57.787l2.5.829a.838.838 0 0 0 .527 0l2.5-.829a.829.829 0 0 0 .57-.787V2.356a4.957 4.957 0 0 1-.476 7.792.828.828 0 0 0-.358.678v9.361zM29.167 31.764a5.877 5.877 0 1 1 2.778 4.925 9.066 9.066 0 0 0-2.176-2.385 5.642 5.642 0 0 1-.6-2.54zm-3.333-6.631h-1.012a9 9 0 0 0 .854-2.5c.053 0 .1.012.158.012h.833v1.658a.831.831 0 0 1-.834.83zm-1.667-9.118a2.517 2.517 0 0 1-2-.995l-1.5-1.989a.834.834 0 0 0-.562-.325.846.846 0 0 0-.626.175l-2.8 2.222a4.2 4.2 0 0 1-2.6.912H9.167v-.829a7.5 7.5 0 0 1 15 0zm4.167 4.145a.831.831 0 0 1-.833.829h-1.668v-4.145H27.5a.831.831 0 0 1 .833.829zM16.667 4.41a9.984 9.984 0 0 1 10 9.947v.829h-.833a9.167 9.167 0 0 0-18.333 0h-.834v-.829a9.984 9.984 0 0 1 10-9.947zM5.833 20.988A.831.831 0 0 1 5 20.159v-2.486a.831.831 0 0 1 .833-.829H7.5v4.145zm3.333 0v-3.315h4.917a5.873 5.873 0 0 0 3.643-1.272l2.126-1.692.981 1.306a4.2 4.2 0 0 0 3.333 1.658v3.316a7.388 7.388 0 0 1-1.266 4.144h-6.233v1.658h4.7a7.525 7.525 0 0 1-7.942.929 7.45 7.45 0 0 1-4.258-6.732zm7.5 9.118a9.184 9.184 0 0 0 2.5-.353v1.182a2.5 2.5 0 0 1-5 0v-1.182a9.184 9.184 0 0 0 2.5.353zm15 18.236h-5V39.22H25v9.118H8.333V39.22H6.667v9.118h-5V41.52a7.426 7.426 0 0 1 4.715-6.927l6.3-2.507a4.146 4.146 0 0 0 7.965 0l6.3 2.507a7.426 7.426 0 0 1 4.72 6.927z" data-color="1"/>
        <path fill="#1487af" d="M35.886 20.08v1.848h-1.848V20.08h1.848z" data-color="1"/>
        <path fill="#1487af" d="M35.886 40.758v1.848h-1.848v-1.848h1.848z" data-color="1"/>
        <path fill="#1487af" d="M41.859 37.997l1.307 1.307-1.307 1.307-1.307-1.307 1.307-1.307z" data-color="1"/>
        <path fill="#1487af" d="M46.303 30.813v1.848h-1.848v-1.848h1.848z" data-color="1"/>
        <path fill="#1487af" d="M41.86 22.843l1.306 1.307-1.307 1.307-1.307-1.307 1.307-1.307z" data-color="1"/>
    </g>
</svg>
