<?xml version="1.0" encoding="UTF-8"?>
<svg data-bbox="-0.001 0 78.274 78.266" viewBox="0 0 78.273 78.265" height="78.265" width="78.273" xmlns="http://www.w3.org/2000/svg" data-type="color">
    <g>
        <g>
            <g>
                <path fill="#1487af" d="M61.433 45.143l-9.888-6.1a1.529 1.529 0 1 0-1.607 2.6l9.888 6.1a1.529 1.529 0 0 0 1.607-2.6z" data-color="1"/>
            </g>
        </g>
        <g>
            <g>
                <path fill="#1487af" d="M45.539 35.603a1.54 1.54 0 0 0-1.489 1.88 1.567 1.567 0 0 0 .692.939 1.49 1.49 0 0 0 .794.238 1.517 1.517 0 0 0 1.3-.726 1.565 1.565 0 0 0-1.297-2.331z" data-color="1"/>
            </g>
        </g>
        <g>
            <g>
                <path fill="#1487af" d="M29.708 39.461a1.574 1.574 0 0 0-2.108-.477l-9.829 6.199a1.539 1.539 0 0 0-.477 2.107 1.594 1.594 0 0 0 1.3.688 1.445 1.445 0 0 0 .813-.209l9.828-6.2a1.54 1.54 0 0 0 .473-2.108z" data-color="1"/>
            </g>
        </g>
        <g>
            <g>
                <path fill="#1487af" d="M33.585 35.486a1.529 1.529 0 1 0 1.494 1.866 1.534 1.534 0 0 0-1.494-1.866z" data-color="1"/>
            </g>
        </g>
        <g>
            <g>
                <path fill="#1487af" d="M77.899 69.626a1.529 1.529 0 0 0-2.157-.15c-1.63 1.417-3.139 2.887-5.278 3.478a9.287 9.287 0 0 1-6.789-.937l7.962-26.788a1.529 1.529 0 0 0-.673-1.743l-7.365-4.464V25.989a1.529 1.529 0 0 0-1.529-1.529h-3.06v-4.585a1.529 1.529 0 0 0-1.529-1.529h-4.815v-4.587a1.529 1.529 0 0 0-1.529-1.529h-7.415V1.529A1.529 1.529 0 0 0 42.194 0h-6.116a1.529 1.529 0 0 0-1.529 1.529v10.7h-7.414a1.529 1.529 0 0 0-1.529 1.529v4.587h-4.815a1.529 1.529 0 0 0-1.529 1.53v4.586h-3.057a1.529 1.529 0 0 0-1.529 1.529v13.032L7.31 43.485a1.529 1.529 0 0 0-.673 1.743l7.945 26.733c-.136-.456-2.582-.757-3.014-.813-4.452-.573-7.836 1.654-11.043 4.443a1.529 1.529 0 0 0-.151 2.157 1.548 1.548 0 0 0 2.157.151c3.3-2.872 7.028-5.061 11.4-2.875 3.954 1.977 8.047 2.825 12.165.657 3.321-1.748 6.525-3.257 10.232-1.493l3.811 1.815a11.569 11.569 0 0 0 10.212-.1c1.99-1 4.013-2.319 6.286-2.476a12.508 12.508 0 0 1 6.339 1.656 11.7 11.7 0 0 0 8.392.76c2.558-.729 4.42-2.359 6.38-4.062a1.528 1.528 0 0 0 .151-2.155zm-17.36-42.108v9.652l-15.93-9.652zM37.607 3.058h3.058v9.173h-3.058zm-8.943 12.23h20.944v3.057H28.664zm-10.931 12.23h15.93l-15.93 9.652zm19.874 43.893c0-.272-2.179-.773-2.464-.835a11.8 11.8 0 0 0-7.929 1.059c-1.75.921-3.439 2-5.44 2.253h-.011a8.753 8.753 0 0 1-3.5-.274L9.899 45.489l27.7-16.786zM22.32 24.46v-3.057h33.632v3.058zm38.528 46.331c.017-.473-4.287-.469-4.575-.438-2.654.281-4.949 1.646-7.291 2.817-2.766 1.383-5.613.986-8.317-.3V28.703l27.7 16.786z" data-color="1"/>
            </g>
        </g>
    </g>
</svg>
