<?xml version="1.0" encoding="UTF-8"?>
<svg data-bbox="0 -0.001 71.017 77.609" viewBox="0 0 71.016 77.608" height="77.608" width="71.016" xmlns="http://www.w3.org/2000/svg" data-type="color">
    <g>
        <path fill="#1487af" d="M35.508 77.608a1.961 1.961 0 0 1-.939-.241L1.012 58.941a1.952 1.952 0 0 1-.966-1.29V20.999H0v-.623a1.951 1.951 0 0 1 1.012-1.71L21.174 7.595a1.967 1.967 0 0 1 .776-.427L34.569.24a1.955 1.955 0 0 1 .939-.241 1.95 1.95 0 0 1 .938.241l33.558 18.426a1.953 1.953 0 0 1 1.012 1.71v12.509a1.952 1.952 0 0 1-1.95 1.95 1.953 1.953 0 0 1-1.951-1.95v-9.211l-9.131 5.014v10.351a1.954 1.954 0 0 1-1.01 1.71l-7.191 3.957a1.952 1.952 0 0 1-.941.242 1.953 1.953 0 0 1-.992-.271 1.96 1.96 0 0 1-.958-1.681v-8.218l-9.431 5.178v32.4l29.655-16.285v-7.582a1.953 1.953 0 0 1 1.951-1.95 1.952 1.952 0 0 1 1.95 1.95v8.737a1.953 1.953 0 0 1-1.012 1.71L36.447 77.362a1.959 1.959 0 0 1-.939.246zM3.902 23.675v32.4L33.557 72.36v-32.4L3.902 23.677zm50.179 7.156l-3.289 1.806v7.06l3.289-1.81zm-38.8-15.546l-9.273 5.092 29.5 16.2 9.273-5.092-29.5-16.2zm7.252-3.982l-3.2 1.755 29.5 16.2 3.2-1.755-29.5-16.2zm12.979-7.126l-8.926 4.9 29.5 16.2 8.925-4.9-29.5-16.2z" data-color="1"/>
        <path fill="#1487af" d="M69.065 38.74a1.952 1.952 0 1 0 1.379.572 1.957 1.957 0 0 0-1.379-.572zm0 0" data-color="1"/>
    </g>
</svg>
