<?xml version="1.0" encoding="UTF-8"?>
<svg data-bbox="0 0 57.472 57.472" viewBox="0 0 57.469 57.469" height="57.469" width="57.469" xmlns="http://www.w3.org/2000/svg" data-type="color">
    <g>
        <path fill="#1487af" d="M14.799 9.381a5.549 5.549 0 1 0-5.551 5.551 5.554 5.554 0 0 0 5.551-5.551zm-9.248 0a3.7 3.7 0 1 1 3.7 3.7 3.7 3.7 0 0 1-3.702-3.7z" data-color="1"/>
        <path fill="#1487af" d="M49.819 6.341l1.308-1.308 1.308 1.308-1.308 1.308z" data-color="1"/>
        <path fill="#1487af" d="M47.202 8.957l1.309-1.308 1.308 1.308-1.308 1.308z" data-color="1"/>
        <path fill="#1487af" d="M44.654 11.505l1.242-1.242 1.308 1.309-1.242 1.241z" data-color="1"/>
        <path fill="#1487af" d="M54.561 38.973h-5.13a23.143 23.143 0 0 0 2.355-10.172 22.9 22.9 0 0 0-4.032-13.017q1.046-.731 2.046-1.54l5.689 5.688 1.983-1.983-2.774-8.324.3-.3a4.848 4.848 0 0 0-6.856-6.857l-.3.3L39.514 0l-1.981 1.983 5.689 5.689q-.807.993-1.536 2.042a23.079 23.079 0 0 0-23.291-1.627A9.242 9.242 0 0 0 0 9.381v.254a9.221 9.221 0 0 0 1.554 5.13l4.963 7.444A23.055 23.055 0 0 0 7.1 37.124h-.627a2.768 2.768 0 0 0-.925 5.378v2.02H0v3.1a9.861 9.861 0 0 0 9.85 9.85h10.236a9.9 9.9 0 0 0 8.86-5.556 22.936 22.936 0 0 0 8.045-1.54v4.321a2.778 2.778 0 0 0 2.774 2.774h14.8a2.778 2.778 0 0 0 2.774-2.774V41.744a2.779 2.779 0 0 0-2.778-2.771zm-10.172 1.85h5.549v1.85h-5.549zm-4.624-1.85H37a53.853 53.853 0 0 0 .9-9.248h12a21.237 21.237 0 0 1-2.568 9.248zm-10.2 10.91l.029-1.663H25.54l-2.949-5.9a2.771 2.771 0 0 0 1.283-1.5H34.7c-1.246 4.984-3.193 8.276-5.136 9.064zm-5.69-10.91a2.773 2.773 0 0 0-1.965-1.768 53.6 53.6 0 0 1-.621-7.48h14.768a51.575 51.575 0 0 1-.938 9.248zM7.433 27.876a21.277 21.277 0 0 1 .546-4.025 2.648 2.648 0 0 0 3.476-.855l2.911-4.368h5.966a53.852 53.852 0 0 0-.9 9.248zm14.789-9.248h12.9a52.289 52.289 0 0 1 .924 9.248H21.287a51.581 51.581 0 0 1 .935-9.247zm6.446-11.1c1.643 0 3.334 1.861 4.69 5.1l-.7.7 1.206.6c.314.892.6 1.838.851 2.843H22.637c1.446-5.736 3.817-9.24 6.031-9.24zm10.246 6.864l-3.137-1.568.572-.572 3.25.812c-.238.439-.464.88-.685 1.331zm-.777 1.679l-.023.05a2.41 2.41 0 0 0-.167.655H36.61a37.398 37.398 0 0 0-.443-1.69zM49.9 27.876h-12a54.448 54.448 0 0 0-.9-9.248h1.465a2.437 2.437 0 0 0 2.875.726l.051-.023 2.741 5.482 3.127-3.128-1.2-4.788c.05-.031.1-.064.148-.1A21.046 21.046 0 0 1 49.9 27.876zm-5.5-10.007l.812 3.25-.572.572-1.567-3.137c.448-.22.892-.446 1.327-.685zm10.818-.815l-4.01-4.01a35.4 35.4 0 0 0 1.366-1.293l.658-.658zM51.562 2.907a3 3 0 0 1 2.12 5.119l-2.416 2.418a33.877 33.877 0 0 1-10.65 7.211.611.611 0 0 1-.8-.8 33.89 33.89 0 0 1 7.209-10.653l2.415-2.416a2.984 2.984 0 0 1 2.121-.879zm-11.147-.658l5.961 1.987-.658.658a35.4 35.4 0 0 0-1.293 1.366zm.154 9.154l-4.787-1.2-1.015 1.015a14.574 14.574 0 0 0-2-3.283 21 21 0 0 1 7.9 3.316c-.034.054-.067.102-.097.152zm-22.112-1.254a21.192 21.192 0 0 1 6.174-2.229 21.957 21.957 0 0 0-3.9 8.858H15.6l1.343-2.014a9.2 9.2 0 0 0 1.514-4.615zM1.85 9.635v-.254a7.4 7.4 0 0 1 14.8 0v.254a7.377 7.377 0 0 1-1.25 4.109l-5.488 8.23a.833.833 0 0 1-1.336 0l-5.484-8.23a7.381 7.381 0 0 1-1.242-4.1zm5.572 20.091h12.017a55.852 55.852 0 0 0 .589 7.4H9.1a21.064 21.064 0 0 1-1.674-7.4zm-.949 9.248h14.8a.925.925 0 0 1 0 1.85h-14.8a.925.925 0 1 1 0-1.85zm.925 3.7H20.7l2.774 5.549h-12.73l-1.85-3.7H7.4zm12.688 12.945H9.85a8.009 8.009 0 0 1-8-8v-1.247h5.9l1.85 3.7h18.1a8.037 8.037 0 0 1-7.614 5.547zM32.7 49.682a21.962 21.962 0 0 0 3.9-8.859h.554a2.743 2.743 0 0 0-.17.925v6.624a20.934 20.934 0 0 1-4.284 1.31zm22.783 5.012a.926.926 0 0 1-.925.925h-14.8a.926.926 0 0 1-.925-.925v-12.95a.926.926 0 0 1 .925-.925h2.774v3.7h9.248v-3.7h2.774a.926.926 0 0 1 .925.925z" data-color="1"/>
        <path fill="#1487af" d="M51.787 51.92h1.85v1.85h-1.85z" data-color="1"/>
        <path fill="#1487af" d="M48.088 51.92h1.85v1.85h-1.85z" data-color="1"/>
        <path fill="#1487af" d="M14.796 44.522h1.85v1.85h-1.85z" data-color="1"/>
        <path fill="#1487af" d="M18.495 44.522h1.85v1.85h-1.85z" data-color="1"/>
        <path fill="#1487af" d="M11.097 44.522h1.85v1.85h-1.85z" data-color="1"/>
        <path fill="#1487af" d="M24.044 31.575h1.85v1.85h-1.85z" data-color="1"/>
        <path fill="#1487af" d="M31.442 31.575h1.85v1.85h-1.85z" data-color="1"/>
        <path fill="#1487af" d="M27.743 31.575h1.85v1.85h-1.85z" data-color="1"/>
        <path fill="#1487af" d="M31.442 24.177h1.85v1.85h-1.85z" data-color="1"/>
        <path fill="#1487af" d="M27.743 24.177h1.85v1.85h-1.85z" data-color="1"/>
        <path fill="#1487af" d="M24.044 24.177h1.85v1.85h-1.85z" data-color="1"/>
    </g>
</svg>
