<?xml version="1.0" encoding="UTF-8"?>
<svg data-bbox="0 0 115.178 67.783" viewBox="0 0 115.178 67.771" height="67.771" width="115.178" xmlns:xlink="http://www.w3.org/1999/xlink" xmlns="http://www.w3.org/2000/svg" data-type="ugc">
    <g>
        <defs>
            <linearGradient gradientUnits="objectBoundingBox" y2="1.086" x2="-.119" y1="-.012" x1=".701" id="bab92497-2d63-4e31-b228-11bdb59b4b7a">
                <stop stop-color="#fff315" offset="0"/>
                <stop stop-color="#ed393c" offset="1"/>
            </linearGradient>
            <linearGradient gradientUnits="objectBoundingBox" y2=".913" x2="-.046" y1=".167" x1=".579" id="481d62a2-1894-4267-9ad8-5b28d2d6b4bb">
                <stop stop-color="#fff315" offset="0"/>
                <stop stop-color="#f69429" offset=".51"/>
                <stop stop-color="#ed393c" offset="1"/>
            </linearGradient>
            <linearGradient gradientUnits="objectBoundingBox" y2="-.034" x2="-.933" y1=".688" x1="1.053" id="7d7e1219-bc0f-4b91-b332-142dca22c35b">
                <stop stop-color="#20aaed" offset="0"/>
                <stop stop-color="#0b5acc" offset="1"/>
            </linearGradient>
            <linearGradient xlink:href="#7d7e1219-bc0f-4b91-b332-142dca22c35b" y2=".5" x2="-.731" y1=".5" x1=".708" id="6f227ba5-3ab4-4b74-8ea2-dd9534efbffc"/>
            <linearGradient xlink:href="#7d7e1219-bc0f-4b91-b332-142dca22c35b" y2=".5" x2="-.483" y1=".5" x1=".86" id="f12443a1-2e90-4602-9e6b-401f3b45d10a"/>
        </defs>
        <path d="M6.372 50.013h1.87v9.928H7.08l-5.211-6.684v6.684H0v-9.9h1.515l4.857 6.144z" fill="#2d2d2d"/>
        <path d="M9.967 59.941v-9.9h1.854v9.9z" fill="#2d2d2d"/>
        <path d="M20.097 50.013h1.869v9.928h-1.169l-5.2-6.684v6.684h-1.88v-9.9h1.515l4.869 6.132z" fill="#2d2d2d"/>
        <path d="M31.062 59.941h-7.42v-9.9h7.42v1.8h-5.56v2.28h5.364v1.74h-5.364v2.238h5.562z" fill="#2d2d2d"/>
        <path d="M42.246 55.041a5.092 5.092 0 1 1-10.183.024 5.093 5.093 0 1 1 10.183-.024zm-8.341.042a3.253 3.253 0 1 0 6.5-.015 3.265 3.265 0 1 0-6.5.015z" fill="#2d2d2d"/>
        <path d="M52.339 54.903a4.692 4.692 0 0 1-4.953 5.04h-3.883v-9.9h3.9a4.657 4.657 0 0 1 4.936 4.86zm-6.993 3.24h2.04a3.172 3.172 0 0 0 0-6.342h-2.04z" fill="#2d2d2d"/>
        <path d="M56.431 59.941v-9.9h7.119v1.8H58.3v2.7h4.968v1.725H58.3v3.669z" fill="#2d2d2d"/>
        <path d="M73.631 59.941h-2.226l-2.886-3.3h-1.8v3.3h-1.87v-9.928c1.572 0 3.144.015 4.716.015a3.284 3.284 0 0 1 3.568 3.285 2.94 2.94 0 0 1-2.505 3.114l3 3.384zm-6.9-8.17v3.171h2.847a1.589 1.589 0 1 0 0-3.171z" fill="#2d2d2d"/>
        <path d="M81.785 59.941h-7.419v-9.9h7.419v1.8h-5.562v2.28h5.364v1.74h-5.364v2.238h5.562z" fill="#2d2d2d"/>
        <path d="M83.244 59.941v-9.9h1.854v9.9z" fill="#2d2d2d"/>
        <path d="M94.207 52.449a3.8 3.8 0 0 0-2.52-.99 3.38 3.38 0 0 0-3.411 3.651 3.138 3.138 0 0 0 3.411 3.315 3.3 3.3 0 0 0 2.238-.8V55.87h-2.538v-1.671h4.257v4.176a4.938 4.938 0 0 1-3.951 1.785c-3.723 0-5.238-2.448-5.238-5.055a5.04 5.04 0 0 1 5.238-5.364 5.235 5.235 0 0 1 3.681 1.515z" fill="#2d2d2d"/>
        <path d="M103.927 59.953v-4.01h-4.869v4.005h-1.869v-9.9h1.869v4.176h4.869v-4.181h1.854v9.9z" fill="#2d2d2d"/>
        <path d="M110.107 51.726h-3.15v-1.7h8.155v1.7h-3.145v8.215h-1.86z" fill="#2d2d2d"/>
        <path fill="#2d2d2d" d="M42.804 65.884v.423H.144v-.423h42.66z"/>
        <path fill="#2d2d2d" d="M115.178 65.884v.423h-42.66v-.423h42.66z"/>
        <path d="M47.463 64.911a1.047 1.047 0 0 0-.864-.405c-.51 0-.753.213-.753.483 0 .318.372.408.81.459.759.093 1.467.3 1.467 1.161 0 .813-.717 1.161-1.53 1.161a1.514 1.514 0 0 1-1.587-.9l.573-.3a1.041 1.041 0 0 0 1.026.576c.432 0 .837-.15.837-.546 0-.345-.36-.483-.843-.537-.744-.087-1.431-.285-1.431-1.1 0-.75.738-1.059 1.41-1.062a1.469 1.469 0 0 1 1.431.723z" fill="#2d2d2d"/>
        <path d="M51.903 67.678h-2.724v-3.645h2.724v.666h-2.044v.84h1.971v.639h-1.971V67h2.043z" fill="#2d2d2d"/>
        <path d="M56.176 67.678h-.816l-1.056-1.218h-.66v1.218h-.687V64.03h1.731a1.2 1.2 0 0 1 1.314 1.2 1.08 1.08 0 0 1-.924 1.143l1.1 1.245zm-2.538-3v1.164h1.044a.585.585 0 1 0 0-1.164z" fill="#2d2d2d"/>
        <path d="M58.957 67.693h-.714l-1.5-3.66h.771l1.1 2.838 1.1-2.838h.768z" fill="#2d2d2d"/>
        <path d="M61.417 67.678v-3.645h.687v3.645z" fill="#2d2d2d"/>
        <path d="M66.478 67.219a1.926 1.926 0 0 1-1.386.54 1.787 1.787 0 0 1-1.929-1.878 1.833 1.833 0 0 1 1.929-1.92 1.872 1.872 0 0 1 1.338.558l-.459.441a1.251 1.251 0 0 0-.879-.342 1.2 1.2 0 0 0-1.254 1.259 1.167 1.167 0 0 0 1.266 1.233 1.329 1.329 0 0 0 .9-.369z" fill="#2d2d2d"/>
        <path d="M70.1 67.678h-2.727v-3.645H70.1v.666h-2.046v.84h1.974v.639h-1.974V67H70.1z" fill="#2d2d2d"/>
        <path transform="translate(-61.274 -15.801)" d="M144.121 28.53a58.168 58.168 0 0 0-14.767-3.33c-19.4-1.854-35.978 5.619-37.041 16.7-.549 5.751 3.2 11.344 9.652 15.646-9.268-4.44-15.043-11.2-14.377-18.2 1.047-10.939 17.431-18.319 36.6-16.5a54.155 54.155 0 0 1 19.933 5.684z" fill="url(#bab92497-2d63-4e31-b228-11bdb59b4b7a)"/>
        <path transform="translate(-43.407 -.002)" d="M62.026 20.967C62.608 8.4 80.942-.95 102.961.079c10.576.5 20.08 3.3 27.038 7.471A61.888 61.888 0 0 0 108.9 3c-21.75-1.018-39.853 8.222-40.438 20.634-.348 7.5 5.787 14.455 15.5 19C70.6 38.359 61.6 30.066 62.026 20.967z" fill="url(#481d62a2-1894-4267-9ad8-5b28d2d6b4bb)"/>
        <path transform="translate(-113.827 -35.658)" d="M175.895 79.742L163.03 56.013a3.435 3.435 0 0 1 3.021-5.073h3.231L180.6 71.83a5.358 5.358 0 0 1-4.7 7.912z" fill="url(#7d7e1219-bc0f-4b91-b332-142dca22c35b)"/>
        <path transform="translate(-144.84 -35.658)" d="M223.409 50.94h-6.669a3.021 3.021 0 0 0-2.92 2.26l-6.9 26.543h6.654a3.021 3.021 0 0 0 2.922-2.256l1.521-5.845h5.589a7.939 7.939 0 0 0 7.762-6.255l.141-.645h-11.7l1.251-4.8h10.747a9.6 9.6 0 0 0 9.568-8.653l.036-.348z" fill="url(#6f227ba5-3ab4-4b74-8ea2-dd9534efbffc)"/>
        <path transform="translate(-93.713 -35.658)" d="M140.552 74.942h-6.672l5.7-21.748a3.021 3.021 0 0 1 2.92-2.254h6.672l-5.7 21.751a3.018 3.018 0 0 1-2.92 2.251z" fill="url(#f12443a1-2e90-4602-9e6b-401f3b45d10a)"/>
    </g>
</svg>
