<?xml version="1.0" encoding="UTF-8"?>
<svg data-bbox="0 0 79.701 55.789" viewBox="0 0 79.699 55.789" height="55.789" width="79.699" xmlns="http://www.w3.org/2000/svg" data-type="color">
    <g>
        <path fill="#1487af" d="M18.597 55.789a9.3 9.3 0 1 1 9.3-9.3 9.3 9.3 0 0 1-9.3 9.3zm0-15.94a6.642 6.642 0 1 0 6.642 6.642 6.642 6.642 0 0 0-6.642-6.641z" data-color="1"/>
        <path fill="#1487af" d="M18.598 50.476a3.985 3.985 0 1 1 3.985-3.985 3.985 3.985 0 0 1-3.985 3.985zm0-5.313a1.328 1.328 0 1 0 1.328 1.328 1.328 1.328 0 0 0-1.328-1.328z" data-color="1"/>
        <path fill="#1487af" d="M61.104 55.789a9.3 9.3 0 1 1 9.3-9.3 9.3 9.3 0 0 1-9.3 9.3zm0-15.94a6.642 6.642 0 1 0 6.642 6.642 6.642 6.642 0 0 0-6.642-6.642z" data-color="1"/>
        <path fill="#1487af" d="M61.104 50.476a3.985 3.985 0 1 1 3.985-3.985 3.985 3.985 0 0 1-3.985 3.985zm0-5.313a1.328 1.328 0 1 0 1.328 1.328 1.328 1.328 0 0 0-1.328-1.328z" data-color="1"/>
        <path fill="#1487af" d="M10.628 47.82H6.643a3.989 3.989 0 0 1-3.985-3.985v-5.313a1.328 1.328 0 0 1 1.328-1.328h57.118a1.328 1.328 0 1 1 0 2.656H5.315v3.985a1.329 1.329 0 0 0 1.328 1.328h3.985a1.329 1.329 0 0 1 0 2.657z" data-color="1"/>
        <path fill="#1487af" d="M75.715 47.819h-6.642a1.329 1.329 0 0 1 0-2.657h6.642a1.329 1.329 0 0 0 1.328-1.328v-5.313a1.328 1.328 0 1 1 2.656 0v5.313a3.989 3.989 0 0 1-3.985 3.985z" data-color="1"/>
        <path fill="#1487af" d="M53.134 47.82H26.567a1.328 1.328 0 0 1 0-2.656h26.566a1.328 1.328 0 1 1 0 2.656z" data-color="1"/>
        <path fill="#1487af" d="M78.371 39.849a1.328 1.328 0 0 1-1.328-1.328V26.247a1.33 1.33 0 0 0-.341-.883l-9.153-10.309a1.331 1.331 0 0 0-1-.444H54.462v22.581h6.644a1.329 1.329 0 0 1 0 2.657h-7.97a1.328 1.328 0 0 1-1.328-1.328V13.283a1.328 1.328 0 0 1 1.328-1.328h13.416a3.984 3.984 0 0 1 2.987 1.339l9.15 10.3a3.981 3.981 0 0 1 1.012 2.649v12.274a1.328 1.328 0 0 1-1.328 1.328z" data-color="1"/>
        <path fill="#1487af" d="M53.134 39.849H1.329a1.328 1.328 0 0 1-1.328-1.328V18.6a1.329 1.329 0 1 1 2.657 0v18.6h49.143V3.985a1.329 1.329 0 0 0-1.328-1.328H3.986a1.329 1.329 0 0 0-1.328 1.328V7.97a1.329 1.329 0 0 1-2.657 0V3.985A3.989 3.989 0 0 1 3.986 0h46.491a3.989 3.989 0 0 1 3.985 3.985v34.536a1.328 1.328 0 0 1-1.328 1.328z" data-color="1"/>
        <path fill="#1487af" d="M1.329 14.611a1.34 1.34 0 0 1-.943-.385 1.543 1.543 0 0 1-.28-.439 1.256 1.256 0 0 1 0-1.009 1.368 1.368 0 0 1 .28-.438 1.533 1.533 0 0 1 .438-.279 1.331 1.331 0 0 1 1.448.279 1.4 1.4 0 0 1 .385.943 1.33 1.33 0 0 1-.106.5 1.555 1.555 0 0 1-.279.439 1.319 1.319 0 0 1-.943.385z" data-color="1"/>
        <path fill="#1487af" d="M78.375 31.88H63.76a3.989 3.989 0 0 1-3.985-3.985V13.283a1.328 1.328 0 1 1 2.656 0v14.612a1.329 1.329 0 0 0 1.328 1.328h14.616a1.329 1.329 0 0 1 0 2.657z" data-color="1"/>
        <path fill="#1487af" d="M45.164 47.82H33.209a1.328 1.328 0 0 1-1.328-1.328v-7.97a1.328 1.328 0 0 1 1.328-1.328h11.955a1.328 1.328 0 0 1 1.328 1.328v7.97a1.328 1.328 0 0 1-1.328 1.328zm-10.626-2.659h9.3v-5.313h-9.3z" data-color="1"/>
    </g>
</svg>
