<?xml version="1.0" encoding="UTF-8"?>
<svg data-bbox="0 33.539 512 444.921" xmlns="http://www.w3.org/2000/svg" width="512" viewBox="0 0 512 512" height="512" data-type="color">
    <g>
        <path fill="#f69583" d="M57.669 259.312h396.662v60.701H57.669z" data-color="1"/>
        <path fill="#ffcec0" d="M217.934 478.46H112.2c-5.69 0-10.302-4.612-10.302-10.302v-128.52h126.338v128.52c0 5.69-4.612 10.302-10.302 10.302z" data-color="2"/>
        <path fill="#ffcec0" d="M399.8 478.46H294.066c-5.69 0-10.302-4.612-10.302-10.302v-128.52h126.338v128.52c0 5.69-4.612 10.302-10.302 10.302z" data-color="2"/>
        <path fill="#fdb0a0" d="M78.03 273.015l-29.321-80.56c-4.743-13.031-19.151-19.749-32.181-15.007-13.031 4.744-19.75 19.152-15.007 32.183l29.321 80.56z" data-color="3"/>
        <path fill="#f69583" d="M48.71 192.459l29.32 80.557-31.354 11.412-29.32-80.557a25.044 25.044 0 0 0-14.329-14.749 24.984 24.984 0 0 1 13.501-11.67c13.034-4.744 27.438 1.973 32.182 15.007z" data-color="1"/>
        <path fill="#fdb0a0" d="M481.157 290.19l29.321-80.56c4.743-13.031-1.976-27.439-15.006-32.181-13.031-4.743-27.439 1.976-32.181 15.006l-29.321 80.56z" data-color="3"/>
        <path fill="#f69583" d="M510.479 209.634l-29.32 80.557-23.595-8.588 29.32-80.557c3.18-8.738 1.208-18.091-4.362-24.723a24.939 24.939 0 0 1 12.949 1.129c13.026 4.741 19.752 19.148 15.008 32.182z" data-color="1"/>
        <path fill="#fb4a59" d="M446.84 263.782c52.578-52.71 52.541-138.059-.119-190.719-50.466-50.466-130.956-52.602-183.968-6.415-3.855 3.359-9.653 3.359-13.508 0-53.011-46.188-133.502-44.052-183.968 6.415-52.659 52.659-52.696 138.009-.119 190.719l184.289 184.294a9.266 9.266 0 0 0 13.103 0z" data-color="4"/>
        <path fill="#f82f40" d="M446.843 263.779L262.555 448.077c-3.618 3.618-9.493 3.618-13.11 0l-23.036-23.046 176.033-176.032c52.576-52.71 52.534-138.062-.124-190.72-9.451-9.452-19.964-17.213-31.148-23.273 27.654 4.092 54.276 16.78 75.55 38.053 52.658 52.669 52.699 138.01.123 190.72z" data-color="5"/>
        <path fill="#ffdfd0" d="M83.844 308.197a8.034 8.034 0 0 1-6.736-6.422l-12.893-66.453c-3.018-15.602-19.222-24.889-34.24-19.541-12.207 4.348-19.148 17.265-16.672 29.984l14.302 73.474 6.563 33.713c9.796 50.325 58.534 83.18 108.859 73.384l20.47-3.985a8.035 8.035 0 0 0 6.352-9.422l-5.447-27.981c-7.807-40.107-40.121-70.893-80.558-76.751z" data-color="6"/>
        <path fill="#ffcec0" d="M163.493 422.349l-17.543 3.415-5.794-29.79c-7.81-40.105-40.125-70.894-80.563-76.746a8.039 8.039 0 0 1-6.734-6.424l-12.898-66.456c-2.222-11.529-11.666-19.612-22.499-20.884 2.975-4.345 7.252-7.81 12.507-9.679 15.022-5.353 31.229 3.934 34.243 19.534l12.898 66.456a8.039 8.039 0 0 0 6.734 6.424c40.438 5.852 72.753 36.641 80.553 76.746l5.45 27.976a8.037 8.037 0 0 1-6.354 9.428z" data-color="2"/>
        <path fill="#ffdfd0" d="M428.156 308.197a8.034 8.034 0 0 0 6.736-6.422l12.893-66.453c3.018-15.602 19.222-24.889 34.24-19.541 12.207 4.348 19.148 17.265 16.672 29.984l-14.302 73.474-6.563 33.713c-9.796 50.325-58.534 83.18-108.859 73.384l-20.47-3.985a8.035 8.035 0 0 1-6.352-9.422l5.447-27.981c7.807-40.107 40.12-70.893 80.558-76.751z" data-color="6"/>
        <path fill="#ffcec0" d="M498.696 245.761l-14.298 73.477-6.567 33.715c-9.796 50.322-58.533 83.176-108.856 73.379l-9.708-1.889c44.421 1.047 84.438-30.006 93.217-75.092l6.557-33.715 14.308-73.467c1.948-9.992-1.928-20.111-9.591-26.081a25.821 25.821 0 0 1 18.271-.303c12.204 4.345 19.143 17.263 16.667 29.976z" data-color="2"/>
    </g>
</svg>
