<?xml version="1.0" encoding="UTF-8"?>
<svg data-bbox="0 0 58.535 78.867" viewBox="0 0 58.533 78.867" height="78.867" width="58.533" xmlns="http://www.w3.org/2000/svg" data-type="color">
    <g>
        <path fill="#1487af" d="M6.161 29.266A23.105 23.105 0 1 0 29.266 6.161 23.132 23.132 0 0 0 6.161 29.266zM29.266 9.242A20.025 20.025 0 1 1 9.242 29.266 20.047 20.047 0 0 1 29.266 9.242zm0 0" data-color="1"/>
        <path fill="#1487af" d="M15.002 26.521l5.971 5.883-1.374 8.268a1.541 1.541 0 0 0 2.229 1.62l7.439-3.863 7.438 3.863a1.541 1.541 0 0 0 2.229-1.62l-1.374-8.268 5.971-5.883a1.54 1.54 0 0 0-.852-2.62l-8.286-1.247-3.749-7.5a1.54 1.54 0 0 0-2.755 0l-3.749 7.5-8.286 1.247a1.54 1.54 0 0 0-.852 2.62zm10.388-.94a1.541 1.541 0 0 0 1.149-.834l2.729-5.458 2.729 5.458a1.541 1.541 0 0 0 1.149.834l6.031.908-4.346 4.281a1.543 1.543 0 0 0-.439 1.35l1 6.018-5.414-2.811a1.54 1.54 0 0 0-1.419 0l-5.414 2.811 1-6.018a1.54 1.54 0 0 0-.439-1.35l-4.346-4.281zm0 0" data-color="1"/>
        <path fill="#1487af" d="M30.808 1.54A1.54 1.54 0 1 1 29.267 0a1.54 1.54 0 0 1 1.541 1.54zm0 0" data-color="1"/>
        <path fill="#1487af" d="M22.007.908A29.269 29.269 0 0 0 9.635 50.969L.354 67.324a1.541 1.541 0 0 0 1.653 2.268l10.539-2.188 3.7 10.438a1.54 1.54 0 0 0 2.79.246l10.231-17.979 10.226 17.979a1.54 1.54 0 0 0 1.338.779c.045 0 .091 0 .136-.005a1.542 1.542 0 0 0 1.317-1.019l3.7-10.438 10.539 2.188a1.541 1.541 0 0 0 1.653-2.268L48.9 50.969A29.27 29.27 0 0 0 36.527.908a1.54 1.54 0 0 0-.762 2.985 26.186 26.186 0 1 1-13 0 1.54 1.54 0 1 0-.762-2.985zm-3.98 72.73L15 65.108a1.54 1.54 0 0 0-1.765-.993l-8.521 1.764 7.344-12.944a29.329 29.329 0 0 0 14.626 5.484zM45.3 64.114a1.541 1.541 0 0 0-1.765.993l-3.027 8.53-8.659-15.218a29.331 29.331 0 0 0 14.626-5.479l7.345 12.939zm0 0" data-color="1"/>
    </g>
</svg>
