<?xml version="1.0" encoding="UTF-8"?>
<svg data-bbox="0.015 0.011 58.518 58.52" viewBox="0 0 58.533 58.533" height="58.533" width="58.533" xmlns="http://www.w3.org/2000/svg" data-type="color">
    <g>
        <g>
            <g>
                <path fill="#1487af" d="M44.319 53.047a1.143 1.143 0 0 0-1.562-.415l-.044.025a1.143 1.143 0 1 0 1.147 1.977l.044-.025a1.143 1.143 0 0 0 .415-1.562z" data-color="1"/>
            </g>
        </g>
        <g>
            <g>
                <path fill="#1487af" d="M54.612 14.642A29.259 29.259 0 0 0 1.01 21.699a29.265 29.265 0 0 0 38.729 34.9 1.143 1.143 0 1 0-.82-2.134 26.8 26.8 0 0 1-25.789-3.544l1.024-5.346.494-.16a3.561 3.561 0 0 0 2.284-4.481l-.362-1.115a1.262 1.262 0 0 1 0-.788 3.557 3.557 0 0 0-2.7-4.6l-2.58-.5-4.977-3.789a1.143 1.143 0 0 0-1.045-.177l-2.915.947a26.951 26.951 0 0 1 0-3.121c.115.107.19.18.236.228a1.2 1.2 0 0 0 1.117.573 16.6 16.6 0 0 0 2.049-.233c.964-.143 1.924-.3 1.933-.3a1.143 1.143 0 0 0 .755-1.771l-1.4-2.056 2.008-1.436a1.144 1.144 0 0 0 .327-.362l3.107-5.435 1.254-1.344a4.829 4.829 0 0 0 .932-5.121 5.258 5.258 0 0 0-2.083-2.453A26.939 26.939 0 0 1 28.96 2.307l-2.042 2.561-7.57 2.654a1.143 1.143 0 0 0-.679.643l-2.113 5.124a1.143 1.143 0 0 0 .126 1.1l3.088 4.325a10.865 10.865 0 0 0-1.387 1.721c-.225.32-.438.622-.585.792-.128.147-.256.292-.383.434a10.7 10.7 0 0 0-1.839 2.552 6.812 6.812 0 0 0 .565 6.887 6.416 6.416 0 0 0 6.059 2.599 8.9 8.9 0 0 0 1.117-.225c.98-.242 1.291-.267 1.6.028.153.143.167.17.164.656a4.444 4.444 0 0 0 .1 1.133 3.612 3.612 0 0 0 .966 1.578 2.562 2.562 0 0 1 .415.529 2.847 2.847 0 0 1-.139 2.365l-.089.272c-.517 1.6.2 3.187.839 4.587.206.455.4.884.529 1.263 1.028 3.05 1.8 3.749 2.417 4.03a2.383 2.383 0 0 0 1 .212c1.648 0 3.368-1.53 4.158-2.5a3.513 3.513 0 0 0 .708-1.665 1.823 1.823 0 0 1 .146-.511 3 3 0 0 1 .375-.482 3.966 3.966 0 0 0 .935-1.553 2.516 2.516 0 0 1 .779-1.217l.252-.271c1.523-1.657 1.131-2.923.715-4.263-.349-1.128.262-1.849 1.74-3.225a12.348 12.348 0 0 0 1.815-1.955 2.468 2.468 0 0 0 .484-2.29c-.414-.959-1.464-1.12-2.309-1.25a3.788 3.788 0 0 1-1-.233 5.4 5.4 0 0 1-1.559-2.361 36.325 36.325 0 0 0-.249-.547c-.149-.318-.3-.7-.454-1.109a9.59 9.59 0 0 0-1.69-3.147 7.3 7.3 0 0 0-3.28-1.457c-.4-.109-.784-.212-1.035-.305a1.142 1.142 0 0 0-.65-.041 2.966 2.966 0 0 0-1.219.5 1.42 1.42 0 0 0-.407.548 13.075 13.075 0 0 1-1.348-.82L28 19.961a1.621 1.621 0 0 0-.1-1.1c-.639-1.351-2.758-1.245-3.177-1.21-.238.02-.538.031-.856.042-.5.018-1.051.038-1.6.1l.028-.078a2.923 2.923 0 0 1 2.745-1.931h.65a1.143 1.143 0 0 0 0-2.286h-.65a5.218 5.218 0 0 0-4.425 2.468l-1.705-2.39 1.678-4.066 7.4-2.593a1.144 1.144 0 0 0 .516-.366l3.288-4.125a26.959 26.959 0 0 1 20.843 13.36 26.677 26.677 0 0 1 2.694 6.543l-.485.432a3.053 3.053 0 0 0-1.017 2.221v.028l-.79-2.171a2.854 2.854 0 0 0-.515-.883l-1.412-1.65a2.865 2.865 0 0 0-2.181-1.007h-1.724a1.656 1.656 0 0 0-1.378 2.574l.174.262a12.67 12.67 0 0 1-3.774 2.241l-2.363-4.526v-1.01a1.142 1.142 0 0 0-.354-.827l-2.128-2.031a1.145 1.145 0 0 0-.41-.252l-1.915-.673a1.143 1.143 0 1 0-.758 2.157l1.683.592 1.6 1.524v.8a1.143 1.143 0 0 0 .13.529l2.958 5.667a1.143 1.143 0 0 0 1.409.543l.861-.318a14.961 14.961 0 0 0 5.36-3.43 1.143 1.143 0 0 0 .143-1.442l-.061-.091h.546a.582.582 0 0 1 .443.2l1.408 1.649a.581.581 0 0 1 .1.179l1.554 4.274a1.143 1.143 0 0 0 1.882.418l.74-.74A3.569 3.569 0 0 0 56 25.849a27.071 27.071 0 0 1-10.044 24.622 1.144 1.144 0 0 0 1.412 1.8 29.265 29.265 0 0 0 7.244-37.627zM5.406 32.324l4.714 3.584a1.142 1.142 0 0 0 .473.212l2.841.555a1.27 1.27 0 0 1 .963 1.642 3.534 3.534 0 0 0 0 2.207l.362 1.114a1.272 1.272 0 0 1-.816 1.6l-1.143.371a1.143 1.143 0 0 0-.769.872l-.914 4.773a27.275 27.275 0 0 1-5.208-6.5 26.831 26.831 0 0 1-3.321-9.52zm6.662-18.233l-1.345 1.441a1.148 1.148 0 0 0-.156.212l-3.054 5.331L4.8 23.016a1.143 1.143 0 0 0-.28 1.574l1.015 1.489c-.585.087-1.11.159-1.459.2l-.21-.2c-.272-.252-.649-.59-1.212-1.082a27.02 27.02 0 0 1 8.051-15.292 2.973 2.973 0 0 1 1.852 1.7 2.537 2.537 0 0 1-.489 2.686zm9.321 6.247a7.331 7.331 0 0 1 2.557-.36c.346-.012.673-.024.966-.048a3.109 3.109 0 0 1 .487 0 1.143 1.143 0 0 0 .526 1.422c.214.115.513.314.829.525a6.587 6.587 0 0 0 2.858 1.331 1.9 1.9 0 0 0 1.553-.647l.048-.049a1.225 1.225 0 0 0 .306-.375c.183.052.375.1.572.158a7.612 7.612 0 0 1 2.215.819 8.115 8.115 0 0 1 1.22 2.4c.172.445.334.865.516 1.254.078.167.155.339.233.513a7.139 7.139 0 0 0 2.394 3.339 4.725 4.725 0 0 0 1.9.58l.249.039a11.054 11.054 0 0 1-1.451 1.522c-1.415 1.318-3.176 2.958-2.365 5.575.383 1.236.4 1.369-.215 2.039l-.235.253a4.7 4.7 0 0 0-1.289 2.091 1.784 1.784 0 0 1-.466.727 5.1 5.1 0 0 0-.64.847 3.7 3.7 0 0 0-.414 1.214 1.4 1.4 0 0 1-.239.67 6.664 6.664 0 0 1-1.443 1.276 1.886 1.886 0 0 1-.958.381 8.156 8.156 0 0 1-1.231-2.685c-.165-.489-.393-.992-.614-1.478-.487-1.072-.99-2.181-.745-2.939l.086-.262a4.994 4.994 0 0 0 .076-3.958 4.123 4.123 0 0 0-.832-1.186 2.125 2.125 0 0 1-.437-.58 2.471 2.471 0 0 1-.037-.578 2.835 2.835 0 0 0-.887-2.34 3.682 3.682 0 0 0-3.717-.578 7.171 7.171 0 0 1-.834.174A4.107 4.107 0 0 1 18 29.765a4.526 4.526 0 0 1-.355-4.576 8.68 8.68 0 0 1 1.48-2.01c.133-.149.267-.3.4-.454.223-.257.468-.6.728-.973a8.264 8.264 0 0 1 1.136-1.414z" data-color="1"/>
            </g>
        </g>
        <g>
            <g>
                <path fill="#1487af" d="M46.875 39.358l-.55-2.073a1.143 1.143 0 0 0-2.11-.252c-.125.231-.238.476-.347.712a4.915 4.915 0 0 1-.571 1.037 2.523 2.523 0 0 1-.671.4 3.143 3.143 0 0 0-1.9 1.85 3.35 3.35 0 0 0-.076 1.613 1.04 1.04 0 0 1-.029.674l-.011.027c-.364.854-1.041 2.444-.092 3.795a2.381 2.381 0 0 0 1.943 1.212 1.856 1.856 0 0 0 .3-.025c1.166-.191 2.043-1.4 2.759-3.818l1.345-4.532a1.143 1.143 0 0 0 .01-.62zm-3.545 4.5a6.934 6.934 0 0 1-.875 2.06 1.925 1.925 0 0 1-.07-.094c-.218-.311.108-1.078.324-1.585l.012-.027a3.217 3.217 0 0 0 .188-1.9 1.2 1.2 0 0 1 0-.593c.045-.143.313-.281.716-.476.179-.086.376-.181.575-.3z" data-color="1"/>
            </g>
        </g>
        <g>
            <g>
                <path fill="#1487af" d="M30.871 13.589l-.077-.027a1.143 1.143 0 1 0-.757 2.157l.077.027a1.143 1.143 0 1 0 .757-2.157z" data-color="1"/>
            </g>
        </g>
    </g>
</svg>
