<?xml version="1.0" encoding="UTF-8"?>
<svg data-bbox="-0.002 0.007 58.504 58.53" viewBox="0 0 58.533 58.533" height="58.533" width="58.533" xmlns="http://www.w3.org/2000/svg" data-type="color">
    <g>
        <path fill="#1487af" d="M42.871 25.151a2.286 2.286 0 0 1-2.286-2.286 1.143 1.143 0 1 0-2.286 0 2.286 2.286 0 1 1-4.573 0 5.716 5.716 0 1 1 11.432 0 2.286 2.286 0 0 1-2.287 2.286zm-17.949-2.286a5.716 5.716 0 0 0-11.432 0 2.286 2.286 0 1 0 4.573 0 1.143 1.143 0 0 1 2.286 0 2.286 2.286 0 1 0 4.573 0zM44.41 54.316a2.286 2.286 0 0 0-2.369-3.916 24.912 24.912 0 1 1 7.732-7.432 2.286 2.286 0 1 0 3.8 2.542 29.252 29.252 0 0 0-45-36.942A29.27 29.27 0 0 0 44.41 54.316zM39.1 33.268a2.281 2.281 0 0 0-1.821.908 11.607 11.607 0 0 1-16.021 0 2.284 2.284 0 1 0-3.4 3.031 16.078 16.078 0 0 0 22.818 0 2.285 2.285 0 0 0-1.576-3.939z" data-color="1"/>
    </g>
</svg>
