<?xml version="1.0" encoding="UTF-8"?>
<svg data-bbox="0 0 55.7 55.701" viewBox="0 0 55.699 55.699" height="55.699" width="55.699" xmlns="http://www.w3.org/2000/svg" data-type="color">
    <g>
        <path fill="#1487af" d="M8.051 29.983a1.086 1.086 0 1 0-.769-.317 1.1 1.1 0 0 0 .769.317zm0 0" data-color="1"/>
        <path fill="#1487af" d="M55.138 14.931L45.2 9.434a1.088 1.088 0 0 0-1.053 1.9l9.381 5.186v37h-4.791V19.364a1.088 1.088 0 0 0-1.088-1.088H8.05a1.088 1.088 0 0 0-1.088 1.088v5.18a1.088 1.088 0 0 0 2.176 0v-4.092h37.423v33.071h-4.555V42.644a2.178 2.178 0 0 0-2.176-2.176h-4.351V29.59a2.178 2.178 0 0 0-2.179-2.176H22.424a2.178 2.178 0 0 0-2.176 2.176v10.879h-4.365a2.178 2.178 0 0 0-2.176 2.176v10.878H9.138V33.247a1.088 1.088 0 0 0-2.176 0v20.276H2.176v-37L27.85 2.331l8.676 4.8a1.088 1.088 0 0 0 1.053-1.9L28.376.136a1.087 1.087 0 0 0-1.053 0L.562 14.931a1.087 1.087 0 0 0-.562.952v38.728a1.088 1.088 0 0 0 1.088 1.09h53.523a1.088 1.088 0 0 0 1.089-1.09V15.883a1.087 1.087 0 0 0-.561-.952zM33.3 42.644h2.176v2.176H33.3zM28.937 29.59v2.176h-2.175V29.59zm-6.513 0h2.162v3.264a1.088 1.088 0 0 0 1.088 1.088h4.351a1.088 1.088 0 0 0 1.088-1.088V29.59H33.3v10.878H22.424zm0 13.054v2.176h-2.175v-2.176zm-6.541 10.879V42.644h2.19v3.264a1.088 1.088 0 0 0 1.088 1.088h4.351a1.088 1.088 0 0 0 1.088-1.088v-3.264h2.162v10.879H15.883zm13.068 0V42.644h2.176v3.264a1.088 1.088 0 0 0 1.088 1.088h4.351a1.088 1.088 0 0 0 1.088-1.088v-3.264h2.176v10.879H28.951zm0 0" data-color="1"/>
        <path fill="#1487af" d="M40.861 9.372a1.088 1.088 0 1 0-.769-.319 1.1 1.1 0 0 0 .769.319zm0 0" data-color="1"/>
        <path fill="#1487af" d="M23.28 11.096a4.569 4.569 0 1 0 4.569-4.569 4.574 4.574 0 0 0-4.569 4.569zm6.962 0a2.393 2.393 0 1 1-2.393-2.393 2.4 2.4 0 0 1 2.393 2.393zm0 0" data-color="1"/>
    </g>
</svg>
