<?xml version="1.0" encoding="UTF-8"?>
<svg data-bbox="0 0 234 176.57" viewBox="0 0 234 176.57" xmlns="http://www.w3.org/2000/svg" data-type="ugc">
    <g>
        <g>
            <path d="M133.38 157.61v-15.84H99.52v15.84c0 6.85-4.38 15.22-9.73 18.59l-.59.37h54.5l-.59-.37c-5.35-3.37-9.73-11.74-9.73-18.59z" fill="#dcdbdb"/>
            <path fill="#eaeaea" d="M230.95 3.67v118.25H3.45V3.67h227.5z"/>
            <path fill="#c9c9c9" d="M229 5v57.83H114.13V5H229z"/>
            <path fill="#3a3a3a" d="M229 62.83v57.83H114.13V62.83H229z"/>
            <path d="M234 125.67H0V8.5A8.51 8.51 0 0 1 8.5 0h217a8.51 8.51 0 0 1 8.5 8.5zm-229-5h224V8.5a3.5 3.5 0 0 0-3.5-3.5H8.5A3.5 3.5 0 0 0 5 8.5z" fill="#7d7d7d"/>
            <path d="M229 150.87H5a5 5 0 0 1-5-5v-20.19h234v20.17a5 5 0 0 1-5 5z" fill="#dcdbdb"/>
            <path d="M119.87 139.81a3.35 3.35 0 0 1-3.36 3.36 3.31 3.31 0 0 1-2.38-1 2.77 2.77 0 0 0 0-4.74 3.36 3.36 0 0 1 5.74 2.37z" fill="#7d7d7d"/>
            <path d="M116.595 133.368a1.75 1.75 0 0 1 0 2.474 1.75 1.75 0 0 1 0-2.474z" fill="#7d7d7d"/>
            <path fill="#c9c9c9" d="M27.13 24.85v75.97a1.64 1.64 0 0 1-1.64 1.64h-8.85a1.64 1.64 0 0 1-1.64-1.64V24.85c0-.906.734-1.64 1.64-1.64h8.85c.906 0 1.64.734 1.64 1.64z"/>
            <path fill="#eaeaea" d="M25.11 26.35v5.43a.91.91 0 0 1-.91.91h-6.28a.91.91 0 0 1-.91-.91v-5.43a.91.91 0 0 1 .91-.91h6.28a.91.91 0 0 1 .91.91z"/>
            <path fill="#eaeaea" d="M25.11 35.85v5.43a.91.91 0 0 1-.91.91h-6.28a.91.91 0 0 1-.91-.91v-5.43a.91.91 0 0 1 .91-.91h6.28a.91.91 0 0 1 .91.91z"/>
            <path fill="#eaeaea" d="M25.11 45.54v5.43a.91.91 0 0 1-.91.91h-6.28a.91.91 0 0 1-.91-.91v-5.43a.91.91 0 0 1 .91-.91h6.28a.91.91 0 0 1 .91.91z"/>
            <path fill="#eaeaea" d="M25.11 55.04v5.43a.91.91 0 0 1-.91.91h-6.28a.91.91 0 0 1-.91-.91v-5.43a.91.91 0 0 1 .91-.91h6.28a.91.91 0 0 1 .91.91z"/>
            <path fill="#eaeaea" d="M25.11 64.54v5.43a.91.91 0 0 1-.91.91h-6.28a.91.91 0 0 1-.91-.91v-5.43a.91.91 0 0 1 .91-.91h6.28a.91.91 0 0 1 .91.91z"/>
            <path fill="#eaeaea" d="M25.11 74.04v5.43a.91.91 0 0 1-.91.91h-6.28a.91.91 0 0 1-.91-.91v-5.43a.91.91 0 0 1 .91-.91h6.28a.91.91 0 0 1 .91.91z"/>
            <path fill="#eaeaea" d="M25.11 83.54v5.43a.91.91 0 0 1-.91.91h-6.28a.91.91 0 0 1-.91-.91v-5.43a.91.91 0 0 1 .91-.91h6.28a.91.91 0 0 1 .91.91z"/>
            <path fill="#eaeaea" d="M25.11 93.04v5.43a.91.91 0 0 1-.91.91h-6.28a.91.91 0 0 1-.91-.91v-5.43a.91.91 0 0 1 .91-.91h6.28a.91.91 0 0 1 .91.91z"/>
            <path stroke-width="3" stroke="#eaeaea" fill="none" stroke-linecap="round" stroke-linejoin="round" d="M164.55 28.99l-4.97 4.96 4.9 4.89"/>
            <path stroke-width="3" stroke="#eaeaea" fill="none" stroke-linecap="round" stroke-linejoin="round" d="M178.58 38.84l4.97-4.96-4.89-4.89"/>
            <path stroke-width="3" stroke="#eaeaea" fill="none" stroke-linecap="round" stroke-linejoin="round" d="M174.82 26.11l-6.95 15.62"/>
            <path stroke="#7f7f7f" fill="none" stroke-linecap="round" stroke-linejoin="round" d="M143.38 77.13h42.99"/>
            <path stroke="#7f7f7f" fill="none" stroke-linecap="round" stroke-linejoin="round" d="M167.03 80.92h37.28"/>
            <path stroke="#eaeaea" fill="none" stroke-linecap="round" stroke-linejoin="round" d="M189.47 77.13h14.65"/>
            <path stroke="#7f7f7f" fill="none" stroke-linecap="round" stroke-linejoin="round" d="M157.55 84.71h14.65"/>
            <path stroke="#7f7f7f" fill="none" stroke-linecap="round" stroke-linejoin="round" d="M175.07 88.5h14.65"/>
            <path stroke="#eaeaea" fill="none" stroke-linecap="round" stroke-linejoin="round" d="M143.38 80.92h20.74"/>
            <path stroke="#eaeaea" fill="none" stroke-linecap="round" stroke-linejoin="round" d="M175.07 84.71h29.24"/>
            <path stroke="#eaeaea" fill="none" stroke-linecap="round" stroke-linejoin="round" d="M143.38 88.5h29.24"/>
            <path stroke="#eaeaea" fill="none" stroke-linecap="round" stroke-linejoin="round" d="M143.38 84.71h10.9"/>
            <path stroke="#eaeaea" fill="none" stroke-linecap="round" stroke-linejoin="round" d="M192.05 88.5h12.26"/>
            <path stroke="#7f7f7f" fill="none" stroke-linecap="round" stroke-linejoin="round" d="M143.38 92.29h42.99"/>
            <path stroke="#7f7f7f" fill="none" stroke-linecap="round" stroke-linejoin="round" d="M167.03 96.08h37.28"/>
            <path stroke="#eaeaea" fill="none" stroke-linecap="round" stroke-linejoin="round" d="M189.47 92.29h14.65"/>
            <path stroke="#eaeaea" fill="none" stroke-linecap="round" stroke-linejoin="round" d="M157.55 99.87h14.65"/>
            <path stroke="#eaeaea" fill="none" stroke-linecap="round" stroke-linejoin="round" d="M175.07 103.67h14.65"/>
            <path stroke="#eaeaea" fill="none" stroke-linecap="round" stroke-linejoin="round" d="M143.38 96.08h20.74"/>
            <path stroke="#eaeaea" fill="none" stroke-linecap="round" stroke-linejoin="round" d="M175.07 99.87h29.24"/>
            <path stroke="#7f7f7f" fill="none" stroke-linecap="round" stroke-linejoin="round" d="M143.38 103.67h29.24"/>
            <path stroke="#eaeaea" fill="none" stroke-linecap="round" stroke-linejoin="round" d="M143.38 99.87h10.9"/>
            <path stroke="#7f7f7f" fill="none" stroke-linecap="round" stroke-linejoin="round" d="M192.05 103.67h12.26"/>
            <path fill="#a5a4a4" d="M77.25 87.43v16.64l4.45-5.96 7.5.02-11.95-10.7z"/>
        </g>
    </g>
</svg>
