<?xml version="1.0" encoding="UTF-8"?>
<svg data-bbox="0 0 234 176.57" viewBox="0 0 234 176.57" xmlns="http://www.w3.org/2000/svg" data-type="ugc">
    <g>
        <g>
            <path d="M133.38 157.61v-15.84H99.52v15.84c0 6.85-4.38 15.22-9.73 18.59l-.59.37h54.5l-.59-.37c-5.35-3.37-9.73-11.74-9.73-18.59z" fill="#dcdbdb"/>
            <path fill="#eaeaea" d="M230.95 3.67v118.25H3.45V3.67h227.5z"/>
            <path d="M15.95 11.67h203a4.5 4.5 0 0 1 4.5 4.5v96h-212v-96a4.5 4.5 0 0 1 4.5-4.5z" fill="#ffffff"/>
            <path d="M234 125.67H0V8.5A8.51 8.51 0 0 1 8.5 0h217a8.51 8.51 0 0 1 8.5 8.5zm-229-5h224V8.5a3.5 3.5 0 0 0-3.5-3.5H8.5A3.5 3.5 0 0 0 5 8.5z" fill="#7d7d7d"/>
            <path d="M229 150.87H5a5 5 0 0 1-5-5v-20.19h234v20.17a5 5 0 0 1-5 5.02z" fill="#dcdbdb"/>
            <path d="M119.87 139.81a3.35 3.35 0 0 1-3.36 3.36 3.31 3.31 0 0 1-2.38-1 2.77 2.77 0 0 0 0-4.74 3.36 3.36 0 0 1 5.74 2.37z" fill="#7d7d7d"/>
            <path d="M116.595 133.368a1.75 1.75 0 0 1 0 2.474 1.75 1.75 0 0 1 0-2.474z" fill="#7d7d7d"/>
            <path fill="#dddddd" d="M19.62 17.2a1.79 1.79 0 1 1-3.58 0 1.79 1.79 0 0 1 3.58 0z"/>
            <path fill="#eaeaea" d="M24.99 17.2a1.79 1.79 0 1 1-3.58 0 1.79 1.79 0 0 1 3.58 0z"/>
            <path fill="#dddddd" d="M125.45 25.75v20.17H70.2V25.75h55.25z"/>
            <path fill="#dddddd" d="M218.2 25.75v20.17h-88.25V25.75h88.25z"/>
            <path fill="#dddddd" d="M64.7 26.11v71.22H17.29V26.11H64.7z"/>
            <path stroke="#ffffff" fill="none" stroke-miterlimit="10" stroke-width="3" d="M25 36.83h30.2"/>
            <path stroke="#ffffff" fill="none" stroke-miterlimit="10" stroke-width="3" d="M25 49.03h24.58"/>
            <path stroke="#ffffff" fill="none" stroke-miterlimit="10" stroke-width="3" d="M25 61.23h13.76"/>
            <path stroke="#ffffff" fill="none" stroke-miterlimit="10" stroke-width="3" d="M25 73.43h30.2"/>
            <path stroke="#ffffff" fill="none" stroke-miterlimit="10" stroke-width="3" d="M25 85.62h21.26"/>
            <path stroke="#dddddd" fill="none" stroke-miterlimit="10" stroke-width="3" d="M72.82 97.32v-30.2"/>
            <path stroke="#dddddd" fill="none" stroke-miterlimit="10" stroke-width="3" d="M80.34 97.32V72.74"/>
            <path stroke="#dddddd" fill="none" stroke-miterlimit="10" stroke-width="3" d="M87.85 97.32V83.56"/>
            <path stroke="#dddddd" fill="none" stroke-miterlimit="10" stroke-width="3" d="M95.36 97.32v-30.2"/>
            <path stroke="#dddddd" fill="none" stroke-miterlimit="10" stroke-width="3" d="M102.87 97.32V76.06"/>
            <path stroke="#dddddd" fill="none" stroke-miterlimit="10" stroke-width="3" d="M110.43 97.32v-30.2"/>
            <path stroke="#dddddd" fill="none" stroke-miterlimit="10" stroke-width="3" d="M117.94 97.32V72.74"/>
            <path stroke="#dddddd" fill="none" stroke-miterlimit="10" stroke-width="3" d="M125.45 97.32V83.56"/>
            <path stroke="#dddddd" fill="none" stroke-miterlimit="10" stroke-width="3" d="M132.96 97.32v-30.2"/>
            <path stroke="#dddddd" fill="none" stroke-miterlimit="10" stroke-width="3" d="M140.47 97.32V76.06"/>
            <path stroke="#dddddd" fill="none" stroke-miterlimit="10" stroke-width="3" d="M147.42 97.32v-30.2"/>
            <path stroke="#dddddd" fill="none" stroke-miterlimit="10" stroke-width="3" d="M154.93 97.32V72.74"/>
            <path stroke="#dddddd" fill="none" stroke-miterlimit="10" stroke-width="3" d="M162.44 97.32V83.56"/>
            <path stroke="#dddddd" fill="none" stroke-miterlimit="10" stroke-width="3" d="M169.95 97.32v-30.2"/>
            <path stroke="#dddddd" fill="none" stroke-miterlimit="10" stroke-width="3" d="M177.46 97.32V76.06"/>
            <path stroke="#dddddd" fill="none" stroke-miterlimit="10" stroke-width="3" d="M185.7 97.32V72.74"/>
            <path stroke="#dddddd" fill="none" stroke-miterlimit="10" stroke-width="3" d="M193.21 97.32V83.56"/>
            <path stroke="#dddddd" fill="none" stroke-miterlimit="10" stroke-width="3" d="M201.2 97.32V76.06"/>
            <path stroke="#dddddd" fill="none" stroke-miterlimit="10" stroke-width="3" d="M209.44 97.32V72.74"/>
            <path stroke="#dddddd" fill="none" stroke-miterlimit="10" stroke-width="3" d="M215.95 97.32V83.56"/>
            <text transform="translate(75.12 38.67)" font-size="9" fill="#ababab" font-family="MyriadPro-Regular,Myriad Pro">
                <tspan letter-spacing=".01em">R</tspan><tspan y="0" x="4.93" letter-spacing="-.02em">p</tspan><tspan y="0" x="9.84">.</tspan>
            </text>
        </g>
    </g>
</svg>
