<?xml version="1.0" encoding="UTF-8"?>
<svg data-bbox="0 0 234 176.57" viewBox="0 0 234 176.57" xmlns="http://www.w3.org/2000/svg" data-type="ugc">
    <g>
        <g>
            <path d="M133.38 157.61v-15.84H99.52v15.84c0 6.85-4.38 15.22-9.73 18.59l-.59.37h54.5l-.59-.37c-5.35-3.37-9.73-11.74-9.73-18.59z" fill="#dcdbdb"/>
            <path fill="#eaeaea" d="M230.95 3.67v118.25H3.45V3.67h227.5z"/>
            <path d="M15.95 11.67h203a4.5 4.5 0 0 1 4.5 4.5v96h-212v-96a4.5 4.5 0 0 1 4.5-4.5z" fill="#ffffff"/>
            <path d="M234 125.67H0V8.5A8.51 8.51 0 0 1 8.5 0h217a8.51 8.51 0 0 1 8.5 8.5zm-229-5h224V8.5a3.5 3.5 0 0 0-3.5-3.5H8.5A3.5 3.5 0 0 0 5 8.5z" fill="#7d7d7d"/>
            <path d="M229 150.87H5a5 5 0 0 1-5-5v-20.19h234v20.17a5 5 0 0 1-5 5.02z" fill="#dcdbdb"/>
            <path d="M119.87 139.81a3.35 3.35 0 0 1-3.36 3.36 3.31 3.31 0 0 1-2.38-1 2.77 2.77 0 0 0 0-4.74 3.36 3.36 0 0 1 5.74 2.37z" fill="#7d7d7d"/>
            <path d="M116.595 133.368a1.75 1.75 0 0 1 0 2.474 1.75 1.75 0 0 1 0-2.474z" fill="#7d7d7d"/>
            <path fill="#a5a4a4" d="M193.22 81.54v16.65l4.46-5.97 7.5.02-11.96-10.7z"/>
            <path fill="#dddddd" d="M19.62 17.2a1.79 1.79 0 1 1-3.58 0 1.79 1.79 0 0 1 3.58 0z"/>
            <path fill="#eaeaea" d="M24.99 17.2a1.79 1.79 0 1 1-3.58 0 1.79 1.79 0 0 1 3.58 0z"/>
            <path fill="#dddddd" d="M216.7 25.75v20.17H17.29V25.75H216.7z"/>
            <path fill="#dddddd" d="M64.7 49.92v47.41H17.29V49.92H64.7z"/>
            <path stroke-miterlimit="10" stroke-width="5" fill="none" stroke="#dddddd" d="M70.2 55.45h54.25"/>
            <path stroke-miterlimit="10" stroke-width="5" fill="none" stroke="#dddddd" d="M70.2 64.89h44.15"/>
            <path stroke-miterlimit="10" stroke-width="5" fill="none" stroke="#dddddd" d="M70.2 74.32h24.72"/>
            <path stroke-miterlimit="10" stroke-width="5" fill="none" stroke="#dddddd" d="M70.2 83.75h54.25"/>
            <path stroke-miterlimit="10" stroke-width="5" fill="none" stroke="#dddddd" d="M70.2 93.19h38.19"/>
            <path stroke-linecap="round" stroke-linejoin="round" fill="none" stroke="#dddddd" d="M190.66 61.82v17.42h-17.42V61.82h17.42z"/>
            <path fill="#a5a4a4" d="M174.86 61.79a1.62 1.62 0 1 1-3.24 0 1.62 1.62 0 0 1 3.24 0z"/>
            <path fill="#a5a4a4" d="M192.28 61.79a1.62 1.62 0 1 1-3.24 0 1.62 1.62 0 0 1 3.24 0z"/>
            <path fill="#a5a4a4" d="M174.86 78.91a1.62 1.62 0 1 1-3.24 0 1.62 1.62 0 0 1 3.24 0z"/>
            <path fill="#a5a4a4" d="M192.28 78.91a1.62 1.62 0 1 1-3.24 0 1.62 1.62 0 0 1 3.24 0z"/>
            <path stroke-width="2" stroke-linecap="round" stroke-linejoin="round" fill="none" stroke="#dddddd" d="M177.41 67.1h9.08H182v7.86"/>
        </g>
    </g>
</svg>
